<svg width="200" height="60" viewBox="0 0 200 60" fill="none" xmlns="http://www.w3.org/2000/svg">
  <!-- 蓝色几何logo -->
  <defs>
    <linearGradient id="gradient" x1="0%" y1="0%" x2="100%" y2="100%">
      <stop offset="0%" stop-color="#1E90FF" />
      <stop offset="50%" stop-color="#0066CC" />
      <stop offset="100%" stop-color="#003D99" />
    </linearGradient>
  </defs>
  
  <!-- 六边形图标 -->
  <g transform="translate(5, 5)">
    <path d="M25 5 L40 12 L40 33 L25 40 L10 33 L10 12 Z" fill="url(#gradient)" stroke="#0066CC" stroke-width="1"/>
    <path d="M18 15 L25 10 L32 15 L32 25 L25 30 L18 25 Z" fill="white" opacity="0.9"/>
    <path d="M20 17 Q25 20 30 17 Q25 25 20 28 Q25 30 30 28" stroke="#0066CC" stroke-width="2" fill="none"/>
    <polygon points="15,20 20,17 20,23" fill="#1E90FF"/>
    <polygon points="35,20 30,17 30,23" fill="#1E90FF"/>
  </g>
  
  <!-- 文字部分 -->
  <text x="55" y="22" font-family="'PingFang SC', 'Microsoft YaHei', sans-serif" font-size="18" font-weight="bold" fill="#1a1a1a">熵变智元</text>
  <text x="55" y="40" font-family="Arial, sans-serif" font-size="10" font-weight="normal" fill="#666" letter-spacing="1px">SHANG BIAN ZHI YUAN</text>
</svg>
