<svg width="60" height="60" viewBox="0 0 60 60" fill="none" xmlns="http://www.w3.org/2000/svg">
  <!-- 蓝色背景圆形 -->
  <circle cx="30" cy="30" r="30" fill="#1E6EFF"/>
  
  <!-- 白色几何图标 - 简化版 -->
  <g transform="translate(15, 15)">
    <path d="M7 2 L23 2 L23 10 L15 10 L15 18 L23 18 L23 26 L7 26 L7 18 L15 18 L15 10 L7 10 Z" fill="white"/>
    <path d="M2 7 L10 7 L10 15 L18 15 L18 23 L10 23 L10 30 L2 30 L2 23 L10 23 L10 15 L2 15 Z" fill="white"/>
    <path d="M12 12 L20 12 L20 20 L28 20 L28 28 L20 28 L20 30 L12 30 L12 22 L20 22 L20 20 L12 20 Z" fill="white"/>
  </g>
</svg>
